<?xml version="1.0" encoding="UTF-8"?>
<svg width="15px" height="15px" viewBox="0 0 15 15" version="1.1" xmlns="http://www.w3.org/2000/svg" xmlns:xlink="http://www.w3.org/1999/xlink">
    <!-- Generator: sketchtool 56.3 (101010) - https://sketch.com -->
    <title>F3619235-DCA4-4FCA-ABF1-BBBEAFB2D202</title>
    <desc>Created with sketchtool.</desc>
    <g id="Filter-on-chart" stroke="none" stroke-width="1" fill="none" fill-rule="evenodd">
        <g id="1_Desktop-(2)-(3)-(2)-(1)-(3)-Copy" transform="translate(-1362.000000, -505.000000)" fill="#002840" fill-rule="nonzero">
            <g id="remove" transform="translate(1362.000000, 505.000000)">
                <path d="M7.5,0 C3.35781097,0 0,3.35781097 0,7.5 C0,11.642189 3.35781097,15 7.5,15 C11.642189,15 15,11.642189 15,7.5 C14.995079,3.35987092 11.6401291,0.0049209668 7.5,0 Z M7.5,14 C3.91017367,14 1,11.0898263 1,7.5 C1,3.91017367 3.91017367,1 7.5,1 C11.0898263,1 14,3.91017367 14,7.5 C13.9961461,11.0882394 11.0882394,13.9961461 7.5,14 Z" id="Shape"></path>
                <path d="M10.8731288,4.13216383 C10.7038614,3.96313249 10.4295424,3.96313249 10.2603808,4.13216383 L7.50269724,6.88772381 L4.74501371,4.13216383 C4.57870848,3.96017256 4.30438948,3.95541559 4.13226568,4.12159276 C3.96014187,4.28766422 3.95538123,4.56177198 4.12168646,4.73376324 C4.1251776,4.73735739 4.12866876,4.74095157 4.13226568,4.74444001 L6.88994921,7.5 L4.13226568,10.25556 C3.96014187,10.4216315 3.95538123,10.6957392 4.12168646,10.8678362 C4.28788591,11.0398274 4.5622049,11.0445844 4.73432871,10.8784072 C4.73792563,10.8749188 4.74152257,10.8714303 4.74501371,10.8678362 L7.50269724,8.11227619 L10.2603808,10.8678362 C10.4325046,11.0339076 10.7068236,11.0291506 10.873023,10.8571594 C11.0352023,10.6893966 11.0352023,10.4233228 10.873023,10.25556 L8.11544527,7.5 L10.8731288,4.74444001 C11.0422904,4.57540868 11.0422904,4.30130089 10.8731288,4.13216383 L10.8731288,4.13216383 Z" id="Path"></path>
            </g>
        </g>
    </g>
</svg>